HIERARCHY
ROOT Hips
{
  OFFSET 0.0 0.0 0.0
  CHANNELS 6 XPOSITION YPOSITION ZPOSITION ZROTATION XROTATION YROTATION 
  JOINT LeftUpLeg
  {
    OFFSET 0.089458 -0.0866707 0.00101652
    CHANNELS 3 ZROTATION XROTATION YROTATION 
    JOINT LeftLeg
    {
      OFFSET 0.0 -0.444227 0.013727
      CHANNELS 3 ZROTATION XROTATION YROTATION 
      JOINT LeftFoot
      {
        OFFSET -0.00253549 -0.420924 -0.0146059
        CHANNELS 3 ZROTATION XROTATION YROTATION 
        End Site
        {
          OFFSET -0.0004 -0.0441509 0.084991
        }
      }
    }
  }
  JOINT Spine
  {
    OFFSET 0.0 0.118905 0.0
    CHANNELS 3 ZROTATION XROTATION YROTATION 
    JOINT Spine1
    {
      OFFSET 0.0 0.256574 0.00127663
      CHANNELS 3 ZROTATION XROTATION YROTATION 
      End Site
      {
        OFFSET -0.0029 0.2150836 0.02525291
      }
      JOINT RightArm
      {
        OFFSET -0.162727 -0.05365632 0.00102123
        CHANNELS 3 ZROTATION XROTATION YROTATION 
        JOINT RightForeArm
        {
          OFFSET -0.26364 0.00099144 -0.0142434
          CHANNELS 3 ZROTATION XROTATION YROTATION 
          End Site
          {
            OFFSET -0.220324 0.00085362 0.0102216
          }
        }
      }
      JOINT LeftArm
      {
        OFFSET 0.162727 -0.0536563199 0.00102123
        CHANNELS 3 ZROTATION XROTATION YROTATION 
        JOINT LeftForeArm
        {
          OFFSET 0.262597 0.00099144 -0.0142434
          CHANNELS 3 ZROTATION XROTATION YROTATION 
          End Site
          {
            OFFSET 0.220902 0.00085362 0.0102216
          }
        }
      }
    }
  }
  JOINT RightUpLeg
  {
    OFFSET -0.089458 -0.0866707 0.00101652
    CHANNELS 3 ZROTATION XROTATION YROTATION 
    JOINT RightLeg
    {
      OFFSET 0.0 -0.444227 0.013727
      CHANNELS 3 ZROTATION XROTATION YROTATION 
      JOINT RightFoot
      {
        OFFSET 0.00253549 -0.420924 -0.0146059
        CHANNELS 3 ZROTATION XROTATION YROTATION 
        End Site
        {
          OFFSET 0.0004 -0.0441509 0.084991
        }
      }
    }
  }
}
MOTION
Frames: 13
Frame Time: 0.033333
-29.818897 0.972024940025 -0.7929175 -8.56152003498 -3.49793987044 -93.8956008976 -8.7157696121 -5.62974969932 0.550979941122 1.0658899734 28.1332981818 20.9498994393 -1.92911990984 -18.6903994373 -0.0912258008134 -5.15609955916 13.5722996356 0.296693999355 -1.31643998846 -1.15833999891 -0.584498987753 77.4208499403 -29.5048155351 2.17855543012 13.0856998836 46.5956017442 -7.15624020287 -72.3440113113 -16.18401371 -23.2377669244 -11.59890089 39.8690026383 -4.80621031232 -6.56590994112 -16.5976004473 -1.62636003549 -8.33385019315 83.7873990392 -9.68027087008 12.9810007676 -7.75484993457 -0.162748987151 
-29.851293 0.976614940025 -0.7921869 -8.4914098507 -3.0313399796 -93.2619027766 -8.04033988904 -2.35477004184 1.08947995269 0.752176023091 25.9305997405 19.7660005523 -2.025429846 -19.5426004325 -0.110866996948 -5.8861797602 13.7467998698 -0.306396016267 0.174006993193 -1.38872003846 -1.50774003345 72.5750697808 -25.8693226984 -8.29901025197 11.0240004525 41.624398821 -0.199248997807 -72.4203591659 -16.7874096968 -31.4825207149 -9.99939011471 39.2988013709 -6.9721000104 -5.77902006854 -22.283900271 -2.63625003494 -8.46399091005 83.7096031846 -10.5152000244 12.0061005466 -9.24853034378 -0.0143836997087 
-29.883908 0.980160940025 -0.7917614 -8.45760980582 -2.65550988774 -92.5554016692 -7.42679936382 0.948004963753 1.61685998941 0.468943019249 23.673300767 18.4360995417 -1.54971997692 -20.1836000257 -0.0653617020357 -6.63949028839 14.1448009692 -1.15956004145 1.82207995993 -1.96909999526 -2.62769991876 69.4373013666 -21.6907820114 -16.1650257841 10.3254001664 41.0993007078 3.37118991558 -71.4554924928 -16.9517081897 -37.9347408767 -7.78717038972 36.7985013422 -10.1433995307 -5.17673996394 -26.8012012654 -3.6203601257 -5.80459016236 80.5441998251 -13.9659003856 11.46539972 -11.2329999722 0.169572999802 
-29.916146 0.981479940025 -0.7915484 -8.57992995611 -2.36730002387 -91.9033030186 -6.98146035777 4.19051998506 2.06242001611 0.332505001338 21.7843999992 17.4271013088 -1.37591001867 -21.3068997668 -0.053585101875 -7.20208016372 14.8247001973 -2.0605899523 3.1864601924 -2.52142004084 -3.72605004603 67.1819524121 -18.9446207858 -21.797443953 10.1801997362 43.2213004641 3.83063006062 -68.3952535559 -15.8298035148 -42.6961511244 -5.66384984564 31.6667992187 -13.937700242 -4.93262985678 -29.883600751 -4.71180002252 -3.61395042005 74.5496023377 -16.6302009402 11.8287999348 -12.9739998237 0.351828993882 
-29.948386 0.980638940025 -0.7915801 -8.78255947067 -2.1614701388 -91.6607971521 -6.70074000977 7.37662991682 2.59618990824 0.217654996919 20.1558011558 16.8339984171 -1.50720012834 -22.381100693 -0.0771069993862 -7.43040997257 15.4307992314 -2.66681982723 4.05948024451 -2.68417000183 -4.42003013599 64.243598201 -19.3675682973 -26.2460998387 10.957900443 45.7724000247 1.75395010362 -64.3773264747 -14.4090217146 -46.4991458128 -3.67031015287 26.6096007988 -17.8791010299 -4.64694011927 -31.4244982579 -5.56623961221 -2.38282995305 65.8894005834 -18.4282004279 11.9781001861 -13.8567001749 0.447678986176 
-29.981043 0.978705940025 -0.7917611 -8.83513997445 -2.06671983364 -91.7070990045 -6.69233973086 10.3570000366 2.96208997227 0.145833996991 18.5963989588 16.6682997354 -1.29671002654 -22.8963001546 -0.0517505957733 -7.3886399507 15.7380996874 -3.01321009622 4.62798036791 -2.59340980781 -4.77644989745 60.9753390228 -20.996720386 -30.0252247234 11.5882005449 46.2770007402 -0.774718955725 -61.8109921771 -14.3637239 -49.7321543847 -1.70767002246 24.1691007838 -21.7982994342 -4.1907001313 -31.4928001496 -6.1355401484 -1.74622996215 54.8495984883 -19.3091001704 11.8235005618 -14.254800312 0.479072990201 
-30.015085 0.974789940025 -0.7920692 -8.75500990266 -2.10816008544 -91.7880982179 -6.92520990797 13.0059002222 3.18441006843 0.218065008372 17.590199396 16.7245002394 -1.3016300039 -23.8117999279 -0.059012400872 -7.16020982344 15.8377999587 -3.23268990091 4.93351009741 -2.49228010596 -4.97167975581 57.8527267984 -22.7280828406 -33.259196352 11.4325004064 45.0962010516 -2.14656004928 -62.4127591638 -16.3670661949 -52.5849638916 -0.26364199359 24.8951003737 -25.5763997906 -3.78630981687 -30.469098227 -6.62746019082 -1.35169016788 42.9597998415 -18.6436997264 11.937900254 -14.2961997961 0.489813035784 
-30.051778 0.967539940025 -0.7929798 -8.85197041434 -2.19122009495 -91.8819996586 -7.09807986143 15.6154004616 3.68858005513 0.313832998375 17.5365004487 16.4483010498 -2.49754981035 -25.6352999269 -0.265462986055 -6.88082990007 15.8166997968 -3.31333992086 5.04416001574 -2.20824007258 -5.02469952613 55.7019617004 -23.8176824283 -35.3711659755 10.8693999744 42.9657011249 -2.14303012214 -64.2154646518 -18.2439543675 -54.6813504384 0.497329979131 25.9632002335 -29.0347994825 -3.35395009123 -28.7410023104 -6.88317991203 -1.07530997821 32.791297658 -16.8583992679 12.3915998385 -14.348900682 0.522915974483 
-30.091239 0.958412940025 -0.7952669 -9.14473964292 -2.24319975552 -91.7336001385 -6.97214995616 18.3181985238 4.43799993681 0.452890954122 18.2152983088 15.3732992839 -4.31646013562 -27.157899357 -0.611302037438 -6.7884302472 15.5083013879 -3.35440984833 5.37957993371 -1.51534993141 -5.12128010854 54.9358364567 -24.2186760043 -35.9108397124 10.4643006009 41.2449988881 -1.5373700344 -65.4427403626 -18.7579397629 -55.4991631387 1.1627399214 26.5796999381 -31.907201387 -2.80393993024 -26.4728996852 -6.72342989819 -0.90600004741 26.0574004949 -15.6514006812 13.0453001685 -14.894699391 0.621247006313 
-30.133072 0.950281940025 -0.7990142 -9.13150017499 -2.12751982975 -90.9189976271 -6.3895301242 20.5379997587 4.48392997077 0.877658017366 19.4857988718 14.1621991685 -5.94939017276 -27.6502996471 -0.927294015921 -6.5766499867 14.6385997405 -3.61516021731 6.09729962679 -0.790784948035 -5.47811992664 55.215956175 -24.2722656686 -35.194120642 10.3302009356 40.9176006004 -1.04331000834 -65.8942431875 -17.9608771773 -54.7426343108 2.20602986606 27.63839975 -34.0548006922 -2.21408009777 -24.0774003715 -6.53286975478 -0.610940037412 22.7260013405 -16.2181988068 12.7965002827 -14.669198988 0.581041951537 
-30.176742 0.944009940025 -0.8032843 -8.54159039676 -1.33173993236 -89.536997641 -4.9362998028 21.6223998649 2.90439984666 1.19207003436 21.9178994617 14.3425007947 -8.47738064214 -27.7259013035 -1.39866991654 -5.12946993225 13.3482993129 -4.05726000615 6.65396004414 -0.62987198777 -5.76391980095 56.0990893894 -24.3759308647 -33.4916208593 10.4509996613 41.5540000612 -1.05438003743 -65.5283499537 -15.7326662719 -52.1546927097 3.32148983064 28.7916993895 -35.3386986713 -1.14454002858 -22.6723006857 -7.19874959272 -0.250074009566 22.6405010324 -17.1499988266 9.87719973801 -12.0504002998 0.197809001831 
-30.220681 0.938263940025 -0.8074997 -7.88637034968 -4.81361995099e-16 -90.0000025045 -2.45740003742 21.2243005816 1.47593995334 0.87448998353 27.0230014134 14.8912996643 -12.6228008881 -26.8283000409 -2.04665999494 -2.11049985212 12.325100263 -4.24296004308 6.63519025742 -1.0069500299 -5.43741029164 57.5468709274 -24.9846646443 -30.1180469943 10.8747002012 42.6042987405 -1.87342996244 -64.9718124797 -12.4245495248 -47.8672770998 4.11792019683 29.6615991124 -35.7850003071 0.939555059255 -23.0000012092 -8.8981595686 -0.539937979834 26.1220994618 -15.96250043 4.43912008783 -8.50886013025 -0.142457002055 
-30.262872 0.933699940025 -0.8124152 -7.68309965111 2.40734990529 -90.1406019485 0.519501039981 19.0308997353 2.74604980816 0.90122200992 35.8365989712 13.0102997178 -15.741099848 -22.0088007418 -1.9231099837 0.978204965334 12.0691995417 -3.98389993248 6.47979022031 -1.36148007011 -4.67755003892 59.98845865 -26.4600145333 -24.0877173723 11.5264001395 44.0828024694 -3.52695003172 -64.7428850293 -8.63331129957 -42.3559735528 4.46317003767 30.205702227 -35.2643998735 3.7647195889 -23.6207988104 -8.63966935192 -1.04014997863 31.0604969865 -14.8897987302 -0.92567600814 -7.35544950021 -0.180541002949 
